<svg id="e84JXFN5z3Z1" xmlns="http://www.w3.org/2000/svg" xmlns:xlink="http://www.w3.org/1999/xlink" viewBox="0 0 300 300" shape-rendering="geometricPrecision" text-rendering="geometricPrecision"><polygon points="0,-121.288298 35.645736,-49.062147 115.352026,-37.480145 57.676013,18.740073 71.291473,98.124294 0,60.644149 -71.291473,98.124294 -57.676013,18.740073 -115.352026,-37.480145 -35.645736,-49.062147 0,-121.288298" transform="translate(146.002026 142.14123)" fill="#fff" stroke-width="0"/><line x1="-18.331309" y1="35.359411" x2="18.331309" y2="-35.359411" transform="translate(127.670717 56.212343)" fill="none" stroke="#3f5787" stroke-width="3"/><line x1="-18.229056" y1="-35.359411" x2="18.229055" y2="35.359411" transform="translate(164.231082 56.212343)" fill="none" stroke="#3f5787" stroke-width="3"/><line x1="-39.446958" y1="-6.150341" x2="39.446958" y2="6.150342" transform="translate(221.907095 97.722096)" fill="none" stroke="#3f5787" stroke-width="3"/><line x1="28.854703" y1="-28.359909" x2="-28.854703" y2="28.359909" transform="translate(232.49935 133.599089)" fill="none" stroke="#3f5787" stroke-width="3"/><line x1="-6.492028" y1="-39.153263" x2="6.492028" y2="39.153263" transform="translate(210.136675 201.112261)" fill="none" stroke="#3f5787" stroke-width="3"/><line x1="41.002278" y1="-6.150342" x2="-41.002278" y2="6.150342" transform="translate(68.33713 97.722096)" fill="none" stroke="#3f5787" stroke-width="3"/><line x1="-30.068337" y1="-28.359909" x2="30.068337" y2="28.359909" transform="translate(57.403189 133.599089)" fill="none" stroke="#3f5787" stroke-width="3"/><line x1="6.833713" y1="-39.153263" x2="-6.833713" y2="39.153263" transform="translate(80.637813 201.112261)" fill="none" stroke="#3f5787" stroke-width="3"/><line x1="-36.098963" y1="19.576631" x2="36.098963" y2="-19.576632" transform="translate(109.903063 220.688893)" fill="none" stroke="#3f5787" stroke-width="3"/><line x1="-35.313338" y1="-19.576632" x2="35.313339" y2="19.576631" transform="translate(181.315365 220.688893)" fill="none" stroke="#3f5787" stroke-width="3"/><line x1="-36.278537" y1="0" x2="36.278537" y2="0" transform="translate(146.1816 130.559228)" fill="none" stroke="#3f5787" stroke-width="3"/><line x1="-0.089787" y1="-41.002277" x2="0.089787" y2="41.002278" transform="translate(146.091813 132.574032)" fill="none" stroke="#3f5787" stroke-width="3"/><line x1="0.683371" y1="-29.384965" x2="-0.683371" y2="29.384966" transform="translate(134.624146 235.079727)" fill="none" stroke="#3f5787" stroke-width="3"/><line x1="-1.366743" y1="-29.384965" x2="1.366743" y2="29.384966" transform="translate(155.808656 235.079728)" fill="none" stroke="#3f5787" stroke-width="3"/></svg>
