<svg id="egwMdkGquUh1" xmlns="http://www.w3.org/2000/svg" xmlns:xlink="http://www.w3.org/1999/xlink" viewBox="0 0 300 300" shape-rendering="geometricPrecision" text-rendering="geometricPrecision"><line x1="-13.32574" y1="28.701595" x2="13.32574" y2="-28.701594" transform="translate(126.765376 30.387244)" fill="none" stroke="#3f5787" stroke-width="3"/><line x1="-12.642369" y1="-28.701594" x2="12.642369" y2="28.701595" transform="translate(152.733485 30.387245)" fill="none" stroke="#3f5787" stroke-width="3"/><line x1="-30.155173" y1="-4.618171" x2="30.155174" y2="4.618171" transform="translate(195.531028 63.70701)" fill="none" stroke="#3f5787" stroke-width="3"/><line x1="22.979775" y1="-20.330296" x2="-22.979775" y2="20.330296" transform="translate(202.706426 89.669704)" fill="none" stroke="#3f5787" stroke-width="3"/><line x1="-7.902189" y1="-29.555809" x2="7.902189" y2="29.555808" transform="translate(187.62884 139.555809)" fill="none" stroke="#3f5787" stroke-width="3"/><line x1="27.719956" y1="14.777904" x2="-27.719956" y2="-14.777904" transform="translate(167.811072 154.333713)" fill="none" stroke="#3f5787" stroke-width="3"/><line x1="26.993166" y1="-14.777904" x2="-26.993166" y2="14.777904" transform="translate(113.09795 154.333713)" fill="none" stroke="#3f5787" stroke-width="3"/><line x1="-5.808656" y1="29.059523" x2="5.808656" y2="-29.059524" transform="translate(91.91344 139.059524)" fill="none" stroke="#3f5787" stroke-width="3"/><line x1="22.209567" y1="20.83741" x2="-22.209567" y2="-20.83741" transform="translate(75.512529 89.16259)" fill="none" stroke="#3f5787" stroke-width="3"/><line x1="-30.068337" y1="4.618171" x2="30.068337" y2="-4.618171" transform="translate(83.371299 63.70701)" fill="none" stroke="#3f5787" stroke-width="3"/><line x1="-17.767654" y1="0" x2="17.767654" y2="0" transform="translate(139.407745 86.713282)" fill="none" stroke="#3f5787" stroke-width="3"/><line x1="-0.341686" y1="-14.692483" x2="0.341685" y2="14.692483" transform="translate(139.749431 90.182232)" fill="none" stroke="#3f5787" stroke-width="3"/><line x1="0" y1="-19.817768" x2="0" y2="19.817768" transform="translate(126.765376 165.01139)" fill="none" stroke="#3f5787" stroke-width="3"/><line x1="0" y1="-19.817768" x2="0" y2="19.817768" transform="translate(152.733485 165.01139)" fill="none" stroke="#3f5787" stroke-width="3"/></svg>
